<?xml version="1.0" standalone="no"?>
<!DOCTYPE svg PUBLIC "-//W3C//DTD SVG 20010904//EN"
 "http://www.w3.org/TR/2001/REC-SVG-20010904/DTD/svg10.dtd">
<svg version="1.0" xmlns="http://www.w3.org/2000/svg"
 width="512.000000pt" height="512.000000pt" viewBox="0 0 512.000000 512.000000"
 preserveAspectRatio="xMidYMid meet">

<g transform="translate(0.000000,512.000000) scale(0.100000,-0.100000)"
fill="#000000" stroke="none">
<path d="M523 4715 c-65 -28 -68 -39 -71 -340 l-3 -271 -72 -18 c-155 -39
-342 -106 -357 -129 -13 -19 -15 -234 -18 -1597 -2 -1637 -3 -1615 38 -1647
25 -20 84 -15 188 16 115 34 252 65 389 86 136 22 499 31 649 16 420 -43 793
-166 1155 -381 135 -80 144 -80 297 8 293 168 625 282 982 337 141 22 474 31
625 16 205 -20 449 -68 584 -116 24 -8 63 -15 87 -15 38 0 49 5 84 41 l40 41
0 1588 c0 1528 -1 1588 -18 1604 -22 19 -149 63 -309 107 l-113 31 0 275 c0
308 -3 323 -67 350 -41 16 -137 13 -347 -13 -439 -54 -872 -238 -1238 -524
-110 -87 -319 -295 -399 -399 l-64 -83 -30 38 c-262 331 -548 567 -890 734
-299 145 -584 222 -919 250 -159 12 -164 12 -203 -5z m382 -241 c390 -65 770
-237 1080 -489 122 -99 294 -278 388 -403 l77 -103 0 -1324 0 -1324 -83 92
c-329 364 -792 633 -1277 742 -117 27 -310 55 -370 55 l-40 0 0 1391 0 1391
68 -6 c37 -4 108 -14 157 -22z m3545 -1369 l0 -1395 -40 0 c-56 0 -248 -28
-355 -51 -477 -104 -936 -365 -1273 -725 l-102 -109 0 1326 0 1326 42 59 c67
95 178 222 274 314 356 343 795 557 1299 634 50 8 105 14 123 15 l32 1 0
-1395z m-4000 -389 l0 -1154 30 -31 c34 -33 36 -34 258 -50 487 -37 914 -219
1290 -549 40 -36 71 -66 69 -68 -2 -2 -50 12 -108 31 -521 177 -1120 208
-1639 85 -47 -11 -95 -22 -108 -25 l-22 -5 0 1428 0 1429 103 31 c56 17 108
31 115 31 9 1 12 -236 12 -1153z m4346 1122 l104 -31 0 -1429 c0 -1357 -1
-1429 -17 -1424 -350 102 -866 126 -1273 60 -126 -21 -340 -75 -469 -119 -58
-19 -106 -33 -108 -31 -7 6 122 120 217 190 354 264 751 407 1208 435 161 9
187 20 209 82 9 26 12 316 12 1167 1 622 4 1132 7 1132 3 0 53 -14 110 -32z"/>
</g>
</svg>
